<?xml version="1.0" encoding="utf-8"?>
<!-- Generator: Adobe Illustrator 27.7.0, SVG Export Plug-In . SVG Version: 6.00 Build 0)  -->
<svg version="1.1" xmlns="http://www.w3.org/2000/svg" xmlns:xlink="http://www.w3.org/1999/xlink" x="0px" y="0px"
	 viewBox="0 0 300 300" style="enable-background:new 0 0 300 300;" xml:space="preserve">
<style type="text/css">
	.st0{fill:#00B423;}
	.st1{fill:#00742A;}
	.st2{fill:none;stroke:#1FD01F;stroke-width:2;}
	.st3{opacity:0.1;}
</style>
<g id="Layer_1">
	<path class="st0" d="M-99.9,44.8"/>
	<path class="st0" d="M57.7,118.4"/>
	<g>
		<circle class="st1" cx="150" cy="150" r="140"/>
	</g>
</g>
<g id="Layer_2">
	<g id="Layer_2_00000096041368154435423290000016788745757777355166_">
		<g>
			
				<image style="overflow:visible;opacity:0.6;enable-background:new    ;" width="298" height="298" xlink:href="3DAF3324.png"  transform="matrix(1 0 0 1 1 6)">
			</image>
			<g>
				<path class="st0" d="M150,10C72.7,10,10,72.7,10,150s62.7,140,140,140s140-62.7,140-140S227.3,10,150,10z M150,255
					c-58,0-105-47-105-105S92,45,150,45s105,47,105,105S208,255,150,255z"/>
			</g>
		</g>
	</g>
</g>
<g id="Layer_3">
	<g>
		
			<image style="overflow:visible;opacity:0.75;" width="238" height="189" xlink:href="3DAF3325.png"  transform="matrix(1 0 0 1 51 41)">
		</image>
		<g>
			<path class="st0" d="M62.4,114.9l86.4,97.9c1.7,1.9,4.6,1.8,6.1-0.3L278.8,46.1L151.5,161.8C151.5,161.8,87,116.8,62.4,114.9z"/>
			<path class="st2" d="M62.4,114.9l86.4,97.9c1.7,1.9,4.6,1.8,6.1-0.3L278.8,46.1L151.5,161.8C151.5,161.8,87,116.8,62.4,114.9z"/>
		</g>
	</g>
	<path class="st3" d="M263.6,68.2l16-21.4l-1.6-1.5l-18.8,17.1l0,0C233.6,30.5,194.2,10,150,10C72.7,10,10,72.7,10,150
		s62.7,140,140,140s140-62.7,140-140C290,119.5,280.2,91.2,263.6,68.2z"/>
</g>
</svg>
